# xmcd
#
# Track frame offsets: 
#        182
#        16375
#        34922
#        54132
#        75735
#
# Disc length: 1327 seconds
#
# Revision: 3
# Processed by: cddbd v1.5.2PL0 Copyright (c) Steve Scherf et al.
# Submitted via: ExactAudioCopyFreeDBPlugin 1.0
#
DISCID=30052d05
DTITLE=Intro - Come Inside
DYEAR=1993
DGENRE=R&B
TTITLE0=Radio Edit
TTITLE1=Piano Man Remix
TTITLE2=Come-A-Pella
TTITLE3=Fingazz Mix
TTITLE4=Ribbon In The Sky (Extended Mix)
EXTD=
EXTT0=
EXTT1=
EXTT2=
EXTT3=
EXTT4=
PLAYORDER=
